<?xml version="1.0" encoding="UTF-8"?><svg id="a" xmlns="http://www.w3.org/2000/svg" xmlns:xlink="http://www.w3.org/1999/xlink" viewBox="0 0 73 73"><defs><linearGradient id="b" x1=".5" y1="36.5" x2="72.5" y2="36.5" gradientUnits="userSpaceOnUse"><stop offset="0" stop-color="#1bb364"/><stop offset="1" stop-color="#00f865"/></linearGradient></defs><circle cx="36.5" cy="36.5" r="36" style="fill:url(#b); stroke:#fff; stroke-miterlimit:10;"/><g><path d="m16.41,56.59c.49-1.45.96-2.82,1.42-4.19.66-1.94,1.33-3.89,1.96-5.84.08-.24.05-.6-.08-.82-6.57-11.75-.03-26.13,13.15-28.91,10.85-2.29,21.63,5.02,23.46,15.91,1.79,10.6-5.37,20.7-15.97,22.54-4.4.76-8.59.14-12.57-1.89-.35-.18-.64-.18-1-.07-3.25,1.04-6.51,2.07-9.77,3.1-.17.05-.35.1-.6.18Zm4.93-4.82c.36-.1.59-.16.81-.23,1.71-.54,3.41-1.1,5.13-1.62.24-.07.6-.03.81.1,3.96,2.36,8.19,3.04,12.68,2.01,8.51-1.97,14.11-10.58,12.42-19.07-1.78-8.93-10.22-14.71-19.24-13.16-11.76,2.02-17.55,15.52-10.88,25.37.26.39.29.71.14,1.13-.63,1.78-1.22,3.56-1.87,5.48Z" style="fill:#fff;"/><path d="m27.21,31.47c.06-1.35.56-2.5,1.45-3.51.73-.84,1.7-.98,2.7-.92.26.02.59.34.72.61.6,1.31,1.15,2.63,1.68,3.97.09.23.05.59-.08.79-.32.52-.68,1.03-1.1,1.48-.38.41-.44.75-.14,1.24,1.59,2.59,3.77,4.46,6.6,5.58.41.16.72.09.99-.24.47-.58.97-1.14,1.41-1.74.29-.4.63-.54,1.06-.34,1.36.63,2.71,1.25,4.04,1.94.2.1.34.53.33.8-.07,2-1.46,3.52-3.43,3.93-1.1.23-2.13.09-3.19-.2-4.64-1.22-8.12-3.99-10.8-7.88-.89-1.3-1.76-2.6-2.07-4.18-.09-.44-.11-.89-.16-1.33Z" style="fill:#fff;"/></g></svg>