<?xml version="1.0" encoding="UTF-8"?><svg id="a" xmlns="http://www.w3.org/2000/svg" xmlns:xlink="http://www.w3.org/1999/xlink" viewBox="0 0 73 73"><defs><linearGradient id="b" x1="0" y1="36.5" x2="73" y2="36.5" gradientUnits="userSpaceOnUse"><stop offset="0" stop-color="#1bb364"/><stop offset="1" stop-color="#00f865"/></linearGradient><linearGradient id="c" x1="16.41" y1="36.5" x2="56.59" y2="36.5" xlink:href="#b"/></defs><circle cx="36.5" cy="36.5" r="36" style="fill:#fff; stroke:url(#b); stroke-miterlimit:10;"/><path d="m16.41,56.59c.49-1.45.96-2.82,1.42-4.19.66-1.94,1.33-3.89,1.96-5.84.08-.24.05-.6-.08-.82-6.57-11.75-.03-26.13,13.15-28.91,10.85-2.29,21.63,5.02,23.46,15.91,1.79,10.6-5.37,20.7-15.97,22.54-4.4.76-8.59.14-12.57-1.89-.35-.18-.64-.18-1-.07-3.25,1.04-6.51,2.07-9.77,3.1-.17.05-.35.1-.6.18Zm4.93-4.82c.36-.1.59-.16.81-.23,1.71-.54,3.41-1.1,5.13-1.62.24-.07.6-.03.81.1,3.96,2.36,8.19,3.04,12.68,2.01,8.51-1.97,14.11-10.58,12.42-19.07-1.78-8.93-10.22-14.71-19.24-13.16-11.76,2.02-17.55,15.52-10.88,25.37.26.39.29.71.14,1.13-.63,1.78-1.22,3.56-1.87,5.48Zm6.04-18.97c.31,1.58,1.18,2.88,2.07,4.18,2.68,3.9,6.17,6.66,10.8,7.88,1.07.28,2.09.43,3.19.2,1.97-.42,3.37-1.93,3.43-3.93,0-.27-.13-.7-.33-.8-1.33-.69-2.68-1.31-4.04-1.94-.43-.2-.77-.06-1.06.34-.44.6-.94,1.16-1.41,1.74-.27.34-.58.4-.99.24-2.83-1.11-5.01-2.99-6.6-5.58-.3-.49-.24-.83.14-1.24.41-.45.78-.95,1.1-1.48.13-.21.17-.57.08-.79-.53-1.34-1.08-2.66-1.68-3.97-.12-.27-.46-.6-.72-.61-1-.06-1.97.08-2.7.92-.88,1.01-1.38,2.16-1.45,3.51.05.44.08.89.16,1.33Z" style="fill:url(#c);"/></svg>