<svg width="128" height="128" viewBox="0 0 128 128" fill="none" xmlns="http://www.w3.org/2000/svg">
<g clip-path="url(#clip0_2_12)">
<rect width="128" height="128" fill="white"/>
<rect width="128" height="128" fill="#609E5F"/>
<path d="M64.5 89.5C84.3823 89.5 100.5 73.3823 100.5 53.5C100.5 33.6177 84.3823 17.5 64.5 17.5C44.6177 17.5 28.5 33.6177 28.5 53.5C28.5 73.3823 44.6177 89.5 64.5 89.5Z" fill="url(#paint0_linear_2_12)"/>
<path d="M44.41 73.59C44.9 72.14 45.37 70.77 45.83 69.4C46.49 67.46 47.16 65.51 47.79 63.56C47.87 63.32 47.84 62.96 47.71 62.74C41.14 50.99 47.68 36.61 60.86 33.83C71.71 31.54 82.49 38.85 84.32 49.74C86.11 60.34 78.95 70.44 68.35 72.28C63.95 73.04 59.76 72.42 55.78 70.39C55.43 70.21 55.14 70.21 54.78 70.32C51.53 71.36 48.27 72.39 45.01 73.42C44.84 73.47 44.66 73.52 44.41 73.6V73.59ZM49.34 68.76C49.7 68.66 49.93 68.6 50.15 68.53C51.86 67.99 53.56 67.43 55.28 66.91C55.52 66.84 55.88 66.88 56.09 67.01C60.05 69.37 64.28 70.05 68.77 69.02C77.28 67.05 82.88 58.44 81.19 49.95C79.41 41.02 70.97 35.24 61.95 36.79C50.19 38.81 44.4 52.31 51.07 62.16C51.33 62.55 51.36 62.87 51.21 63.29C50.58 65.07 49.99 66.85 49.34 68.77V68.76Z" fill="white"/>
<path d="M55.21 48.47C55.27 47.12 55.77 45.97 56.66 44.96C57.39 44.12 58.36 43.98 59.36 44.04C59.62 44.06 59.95 44.38 60.08 44.65C60.68 45.96 61.23 47.28 61.76 48.62C61.85 48.85 61.81 49.21 61.68 49.41C61.36 49.93 61 50.44 60.58 50.89C60.2 51.3 60.14 51.64 60.44 52.13C62.03 54.72 64.21 56.59 67.04 57.71C67.45 57.87 67.76 57.8 68.03 57.47C68.5 56.89 69 56.33 69.44 55.73C69.73 55.33 70.07 55.19 70.5 55.39C71.86 56.02 73.21 56.64 74.54 57.33C74.74 57.43 74.88 57.86 74.87 58.13C74.8 60.13 73.41 61.65 71.44 62.06C70.34 62.29 69.31 62.15 68.25 61.86C63.61 60.64 60.13 57.87 57.45 53.98C56.56 52.68 55.69 51.38 55.38 49.8C55.29 49.36 55.27 48.91 55.22 48.47H55.21Z" fill="white"/>
<mask id="mask0_2_12" style="mask-type:alpha" maskUnits="userSpaceOnUse" x="0" y="0" width="65" height="128">
<rect width="65" height="128" fill="#D9D9D9"/>
</mask>
<g mask="url(#mask0_2_12)">
<path d="M65 89C84.8823 89 101 72.8823 101 53C101 33.1177 84.8823 17 65 17C45.1177 17 29 33.1177 29 53C29 72.8823 45.1177 89 65 89Z" fill="white"/>
<path d="M44.91 73.09C45.4 71.64 45.87 70.27 46.33 68.9C46.99 66.96 47.66 65.01 48.29 63.06C48.37 62.82 48.34 62.46 48.21 62.24C41.64 50.49 48.18 36.11 61.36 33.33C72.21 31.04 82.99 38.35 84.82 49.24C86.61 59.84 79.45 69.94 68.85 71.78C64.45 72.54 60.26 71.92 56.28 69.89C55.93 69.71 55.64 69.71 55.28 69.82C52.03 70.86 48.77 71.89 45.51 72.92C45.34 72.97 45.16 73.02 44.91 73.1V73.09ZM49.84 68.26C50.2 68.16 50.43 68.1 50.65 68.03C52.36 67.49 54.06 66.93 55.78 66.41C56.02 66.34 56.38 66.38 56.59 66.51C60.55 68.87 64.78 69.55 69.27 68.52C77.78 66.55 83.38 57.94 81.69 49.45C79.91 40.52 71.47 34.74 62.45 36.29C50.69 38.31 44.9 51.81 51.57 61.66C51.83 62.05 51.86 62.37 51.71 62.79C51.08 64.57 50.49 66.35 49.84 68.27V68.26ZM55.88 49.28C56.19 50.86 57.06 52.16 57.95 53.46C60.63 57.36 64.12 60.12 68.75 61.34C69.82 61.62 70.84 61.77 71.94 61.54C73.91 61.12 75.31 59.61 75.37 57.61C75.37 57.34 75.24 56.91 75.04 56.81C73.71 56.12 72.36 55.5 71 54.87C70.57 54.67 70.23 54.81 69.94 55.21C69.5 55.81 69 56.37 68.53 56.95C68.26 57.29 67.95 57.35 67.54 57.19C64.71 56.08 62.53 54.2 60.94 51.61C60.64 51.12 60.7 50.78 61.08 50.37C61.49 49.92 61.86 49.42 62.18 48.89C62.31 48.68 62.35 48.32 62.26 48.1C61.73 46.76 61.18 45.44 60.58 44.13C60.46 43.86 60.12 43.53 59.86 43.52C58.86 43.46 57.89 43.6 57.16 44.44C56.28 45.45 55.78 46.6 55.71 47.95C55.76 48.39 55.79 48.84 55.87 49.28H55.88Z" fill="url(#paint1_linear_2_12)"/>
</g>
<path d="M8.49254 119V101.545H10.6062V117.125H18.7198V119H8.49254ZM24.1062 101.545V119H21.9925V101.545H24.1062ZM40.2759 107C40.0884 106.426 39.8413 105.912 39.5344 105.457C39.2333 104.997 38.8725 104.605 38.4521 104.281C38.0373 103.957 37.5657 103.71 37.0373 103.54C36.5089 103.369 35.9293 103.284 35.2987 103.284C34.2646 103.284 33.3242 103.551 32.4776 104.085C31.631 104.619 30.9577 105.406 30.4577 106.446C29.9577 107.486 29.7077 108.761 29.7077 110.273C29.7077 111.784 29.9606 113.06 30.4663 114.099C30.9719 115.139 31.6566 115.926 32.5202 116.46C33.3839 116.994 34.3555 117.261 35.435 117.261C36.435 117.261 37.3157 117.048 38.0771 116.622C38.8441 116.19 39.4407 115.582 39.8668 114.798C40.2987 114.009 40.5146 113.08 40.5146 112.011L41.1623 112.148H35.9123V110.273H42.56V112.148C42.56 113.585 42.2532 114.835 41.6396 115.898C41.0316 116.96 40.1907 117.784 39.1168 118.369C38.0487 118.949 36.8214 119.239 35.435 119.239C33.8896 119.239 32.5316 118.875 31.3612 118.148C30.1964 117.42 29.2873 116.386 28.6339 115.045C27.9862 113.705 27.6623 112.114 27.6623 110.273C27.6623 108.892 27.8469 107.651 28.2163 106.548C28.5913 105.44 29.1197 104.497 29.8015 103.719C30.4833 102.94 31.2901 102.344 32.2219 101.929C33.1538 101.514 34.1793 101.307 35.2987 101.307C36.2191 101.307 37.0771 101.446 37.8725 101.724C38.6737 101.997 39.3867 102.386 40.0117 102.892C40.6424 103.392 41.168 103.991 41.5884 104.69C42.0089 105.384 42.2987 106.153 42.4577 107H40.2759ZM46.18 119V101.545H48.2937V109.318H57.6005V101.545H59.7141V119H57.6005V111.193H48.2937V119H46.18ZM62.9911 103.42V101.545H76.082V103.42H70.5934V119H68.4798V103.42H62.9911ZM89.2646 119L84.4918 101.545H86.6396L90.2873 115.761H90.4577L94.1737 101.545H96.56L100.276 115.761H100.446L104.094 101.545H106.242L101.469 119H99.2873L95.435 105.091H95.2987L91.4464 119H89.2646ZM108.232 119H106.016L112.425 101.545H114.607L121.016 119H118.8L113.584 104.307H113.448L108.232 119ZM109.05 112.182H117.982V114.057H109.05V112.182Z" fill="white"/>
</g>
<defs>
<linearGradient id="paint0_linear_2_12" x1="28.5" y1="53.5" x2="100.5" y2="53.5" gradientUnits="userSpaceOnUse">
<stop stop-color="#1BB364"/>
<stop offset="1" stop-color="#00F865"/>
</linearGradient>
<linearGradient id="paint1_linear_2_12" x1="44.91" y1="53" x2="85.09" y2="53" gradientUnits="userSpaceOnUse">
<stop stop-color="#1BB364"/>
<stop offset="1" stop-color="#00F865"/>
</linearGradient>
<clipPath id="clip0_2_12">
<rect width="128" height="128" fill="white"/>
</clipPath>
</defs>
</svg>
